<?xml version="1.0" encoding="UTF-8"?>
<!-- Generator: Adobe Illustrator 16.0.0, SVG Export Plug-In . SVG Version: 6.00 Build 0)  -->
<!DOCTYPE svg PUBLIC "-//W3C//DTD SVG 1.1//EN" "http://www.w3.org/Graphics/SVG/1.1/DTD/svg11.dtd">
<svg version="1.1" id="Layer_1" xmlns="http://www.w3.org/2000/svg" xmlns:xlink="http://www.w3.org/1999/xlink" x="0px" y="0px" width="256px" height="256px" viewBox="0 0 256 256" enable-background="new 0 0 256 256" xml:space="preserve">
<rect fill="#E05C5C" width="256" height="256"/>
<path opacity="0.6" fill-rule="evenodd" clip-rule="evenodd" fill="#B94352" d="M195.5,145.75l-27.875,27.875  c0,0-6.313-11.628-16.25-16.25c-10.75-5-12.75-6.5-12.75-6.5l28.519-28.519L195.5,145.75z"/>
<polygon opacity="0.6" fill-rule="evenodd" clip-rule="evenodd" fill="#B94352" points="239.75,93.625 197.375,136 218.375,92.75   "/>
<path opacity="0.6" fill-rule="evenodd" clip-rule="evenodd" fill="#B94352" d="M98,167.333L9.333,256l126.049-0.008l25.743-25.742  c0,0-14.812,11.263-31.792,12.084c-20.667,1-33.645-10.676-41.334-30.667C79.667,190.001,98,167.333,98,167.333z"/>
<polygon opacity="0.6" fill-rule="evenodd" clip-rule="evenodd" fill="#B94352" points="0,136.754 62.268,74.487 35.597,25.955   0,61.553 "/>
<polygon opacity="0.6" fill-rule="evenodd" clip-rule="evenodd" fill="#B94352" points="191.5,137.5 211,90 236.455,85.282   247.25,74.487 198.764,25.955 139.693,85.026 "/>
<path opacity="0.6" fill-rule="evenodd" clip-rule="evenodd" fill="#B94352" d="M18.625,84c-2.688,0-3.969,1.813-3.969,1.813  l-14.672,14.672v113.464l70.885-70.885L68,131.75L47,89L18.625,84z"/>
<g>
	<path fill-rule="evenodd" clip-rule="evenodd" fill="#04FF6F" d="M198.871,74.499c0-16.231,0-32.265,0-48.438   c16.154,0,32.186,0,48.423,0c0,16.081,0,32.17,0,48.438C231.245,74.499,215.154,74.499,198.871,74.499z"/>
	<path fill-rule="evenodd" clip-rule="evenodd" fill="#FFFFFF" d="M127.777,66.396c-15.231-0.165-27.415-12.459-27.268-27.517   c0.147-15.152,12.529-27.271,27.686-27.099c15.016,0.169,27.156,12.531,27.03,27.523C155.099,54.314,142.696,66.557,127.777,66.396   z"/>
	<path fill-rule="evenodd" clip-rule="evenodd" fill="#FFDE00" d="M8.939,74.487c8.912-16.225,17.641-32.116,26.658-48.532   c8.976,16.333,17.747,32.293,26.67,48.532C44.395,74.487,26.86,74.487,8.939,74.487z"/>
	<path fill-rule="evenodd" clip-rule="evenodd" fill="#FFFFFF" d="M235.741,83.953c-8.444-0.016-16.89,0.06-25.332-0.07   c-1.93-0.029-2.959,0.582-3.73,2.283c-3.579,7.899-7.253,15.756-10.862,23.643c-1.982,4.335-3.904,8.699-5.971,13.306   c-0.838-0.949-1.489-1.657-2.108-2.393c-8.004-9.497-16.023-18.981-23.997-28.504c-6.613-7.9-14.793-13.239-25.124-14.386   c-5.779-0.641-11.673-0.47-17.507-0.333c-11.353,0.266-20.693,4.981-28.014,13.578c-8.58,10.074-17.031,20.255-25.511,30.414   c-0.441,0.527-0.628,1.27-0.934,1.912c-0.942-1.12-1.152-1.558-1.354-1.998c-5.355-11.722-10.727-23.438-16.048-35.175   c-0.756-1.667-1.739-2.366-3.694-2.336c-8.442,0.129-16.887,0.045-25.33,0.071c-0.965,0.003-1.958,0.094-2.887,0.336   c-3.469,0.903-4.836,4.418-2.963,7.49c1.242,2.036,3.197,2.617,5.421,2.623c4.384,0.012,8.775,0.161,13.149-0.039   c2.024-0.092,2.852,0.693,3.552,2.399c1.722,4.199,3.608,8.331,5.438,12.486c4.606,10.459,9.188,20.931,13.837,31.371   c3.302,7.416,10.154,8.367,15.32,2.185c0.885-1.059,1.756-2.13,2.645-3.186c3.85-4.572,7.705-9.143,11.885-14.102   c2.209,14.314,4.38,28.378,6.537,42.351c8.876-9.738,21.657-15.859,35.84-15.859c14.064,0,26.745,6.023,35.612,15.62   c2.154-13.976,4.315-27.995,6.52-42.295c1.14,1.337,1.874,2.188,2.6,3.049c4.29,5.089,8.545,10.208,12.873,15.265   c4.203,4.91,11.219,3.974,14.047-1.828c0.32-0.654,0.593-1.333,0.887-2c6.372-14.466,12.769-28.921,19.078-43.414   c0.648-1.49,1.382-2.087,3.039-2.041c4.301,0.123,8.605,0.039,12.908,0.047c4.36,0.01,6.951-1.954,7.041-5.352   C242.69,85.833,240.2,83.961,235.741,83.953z"/>
</g>
<g>
	<path fill="#FFFFFF" d="M143.977,211.576c0,0-23.002,0-24.246,0c-1.244,0-1.969,0.207-1.969,1.037c0,0.828-0.414,2.175,1.762,2.175   c1.45,0,19.997,0,22.485,0c2.485,0,3.729,1.037,3.729,3.108c0,2.666-2.488,2.694-4.249,2.694c-1.14,0-22.277,0-25.281,0   c-3.005,0-3.834-1.14-3.834-4.456c0-3.315,0-26.731,0-26.731s-1.969,0-4.352,0c-2.383,0-3.334-1.174-3.315-2.799   c0.023-1.968,1.762-2.59,4.041-2.59s5.388,0,7.356,0s2.487,1.657,2.487,3.419s0,4.974,0,4.974h35.955L143.977,211.576z"/>
	<circle fill="#FFFFFF" cx="115.742" cy="227.379" r="4.456"/>
	<circle fill="#FFFFFF" cx="140.713" cy="227.379" r="4.455"/>
	<path fill="#FFFFFF" d="M127.916,163.533c20.38,0,36.958,16.577,36.958,36.955c0,20.379-16.578,36.957-36.958,36.957   c-20.377,0-36.955-16.578-36.955-36.957C90.961,180.11,107.539,163.533,127.916,163.533 M127.916,156.072   c-24.529,0-44.416,19.888-44.416,44.416c0,24.532,19.887,44.417,44.416,44.417c24.53,0,44.419-19.885,44.419-44.417   C172.335,175.96,152.446,156.072,127.916,156.072L127.916,156.072z"/>
</g>
</svg>