<?xml version="1.0" encoding="UTF-8"?>
<!-- Generator: Adobe Illustrator 16.0.0, SVG Export Plug-In . SVG Version: 6.00 Build 0)  -->
<!DOCTYPE svg PUBLIC "-//W3C//DTD SVG 1.1//EN" "http://www.w3.org/Graphics/SVG/1.1/DTD/svg11.dtd">
<svg version="1.1" id="Layer_1" xmlns="http://www.w3.org/2000/svg" xmlns:xlink="http://www.w3.org/1999/xlink" x="0px" y="0px" width="256px" height="256px" viewBox="0 0 256 256" enable-background="new 0 0 256 256" xml:space="preserve">
<rect fill="#3FD6F5" width="256" height="256"/>
<path opacity="0.7" fill-rule="evenodd" clip-rule="evenodd" fill="#00A5D0" d="M155,168.5l-87.25,87.25l138.209,0.209  l25.333-25.334c0,0-35.813,27.686-64.958,2.375C134.667,205.5,155,168.5,155,168.5z"/>
<g>
	<path fill="none" d="M81.307,248.814C81.33,247.712,81.063,248.814,81.307,248.814L81.307,248.814z"/>
	<path fill="none" d="M83.569,227.551C83.723,228.491,83.804,227.735,83.569,227.551L83.569,227.551z"/>
	<path fill="none" d="M47.437,79.449C46.999,79.83,47.729,79.53,47.437,79.449L47.437,79.449z"/>
	<path fill="none" d="M64.371,225.679c-0.021,0.146-0.042,0.291-0.063,0.437C64.383,226.021,64.48,225.784,64.371,225.679z"/>
	<path fill="none" d="M32.947,197.786c0-0.001-0.003-0.003-0.003-0.003C31.453,198.07,32.719,197.84,32.947,197.786z"/>
	<path fill="none" d="M20.818,190.525C20.818,190.648,21.142,190.575,20.818,190.525L20.818,190.525z"/>
	<path fill="none" d="M122.108,138.132c-0.061-0.097-0.129-0.185-0.216-0.248C121.884,137.928,121.979,138.023,122.108,138.132z"/>
	<path fill="none" d="M30.841,62.736c-0.133,0.051-0.25,0.105-0.362,0.16C30.37,62.977,31.092,62.768,30.841,62.736z"/>
	<path fill="#008ABF" d="M30.479,62.896c0.112-0.055,0.229-0.109,0.362-0.16C30.61,62.825,30.512,62.872,30.479,62.896z"/>
	<path fill="#008ABF" d="M2.715,46.583c0.026,0.555,0.917,1.104,2.326,1.624C4.544,47.207,3.756,46.518,2.715,46.583z"/>
	<path fill="#008ABF" d="M83.569,227.551c0.307,1.881,0.07,4.316,1.85,2.143C84.862,228.926,84.247,228.212,83.569,227.551   C83.804,227.735,83.723,228.491,83.569,227.551z"/>
	<path fill="#008ABF" d="M110.334,122.458c-0.03-0.04-6.248-4.726-4.696-0.923c-1.495,0.104-8.322-20.074-13.867-20.939   c-11.143-1.737-3.014-29.904-12.972-33.384c-6.244,4.678-8.951-16.557-11.216-21.724c-5.031,1.779-4.22,10.127-3.673,11.118   c-6.784,8.03,0.688,28.119-13.359,30.749c-4.28,0.802-9.963-8.509-14.404-9.439c-19.716-2.921-6.524-16.737-3.017-23.986   c0.048,0.069-3.96-2.671-3.772-2.7c-1.616,0.248,0.459,2.694-1.24,3.065c-0.887,0.193-2.286-2.471-2.286-2.798   c-2.471,0.236-15.433-1.313-20.79-3.29c0.711,1.432,0.821,3.507,0.18,4.969C3.591,52.458,1.741,52.319,0,52.513v120.64   c5.989,1.479,11.403,4.76,15.464,4.697c0.213,0.216,7.719,13.03,5.354,12.676c0.324,0.05,0,0.123,0,0   c0,0.945,3.912,4.743,4.354,2.675c1.006-4.703,3.731,2.486,3.161-2.533c3.622,0,1.414,4.059,1.414,4.748   c4.561,0.053,3.424,2.635,4.92-1.415c5.003,0.782,1.695,2.732,2.135,3.558c1.393,1.761,5.569,0.971,6.984,4.719   c2.039,4.988-0.907,9.994,6.789,11.92c1.088,1.744,8.492,4.361,10.73,5.133c3.607,1.245,5.31-5.835,8.03-5.061   c1.736,0.495,0.529,2.823-0.657,3.187c-0.134-0.203,7.931,4.528,7.98,4.403c-0.61-0.297-1.056-0.753-1.338-1.361   c4.077-5.765,14.713-2.759,19.563-6.349c3.311-2.453,1.241-14.282,7.032-17.03c2.593-5.283,6.754-12.646,11.558-16.444   c3.66-2.897,4.293-12.904,6.594-17.152c4.137-9.459-2.264-20.254-4.6-28.728C113.926,129.193,108.09,129.186,110.334,122.458z"/>
	<path fill="#008ABF" d="M83.35,233.974c-5.183,4.498-11.046-2.475-16.058-1.702c-3.248,6.632,4.584,11.95,5.352,17.028   c3.69,4.7,9.634-0.485,8.663-0.485c-0.244,0,0.023-1.103,0,0C81.36,246.33,87.504,236.188,83.35,233.974z"/>
	<path fill="#008ABF" d="M64.371,225.679c0.109,0.105,0.013,0.343-0.063,0.437c-0.108,0.747-0.216,1.492-0.326,2.24   C65.369,227.255,65.499,226.359,64.371,225.679z"/>
	<path fill="#008ABF" d="M32.944,197.783c0,0,0.002,0.002,0.003,0.003c0.024-0.006,0.041-0.01,0.036-0.011   c-4.09-1.004-5.762-0.296-5.012,2.116c1.549-0.054,6.742,1.811,7.442-0.94c-0.369-0.023-2.429-1.046-2.466-1.165   C32.719,197.84,31.453,198.07,32.944,197.783z"/>
	<path fill="#008ABF" d="M47.437,79.449C47.729,79.53,46.999,79.83,47.437,79.449C44.164,82.294,50.057,80.177,47.437,79.449z"/>
	<path fill="#008ABF" d="M35.413,198.951c0.062,0.004,0.08-0.019,0.028-0.081C35.435,198.9,35.42,198.922,35.413,198.951z"/>
	<path fill="#008ABF" d="M30.479,62.896c-1.967,0.966-0.671,2.442,0.216,3.051c1.13-0.075,2.02-2.977,0.146-3.211   C31.092,62.768,30.37,62.977,30.479,62.896z"/>
	<path fill="#008ABF" d="M64.307,226.115c0.021-0.146,0.042-0.291,0.063-0.437C64.175,226.157,64.23,226.209,64.307,226.115z"/>
	<path fill="#008ABF" d="M121.892,137.884c-0.365,2.276-1.859,0.458-1.313,4.45c1.214,0,2.231-3.083,1.53-4.202   C121.979,138.023,121.884,137.928,121.892,137.884z"/>
	<path fill="#008ABF" d="M121.892,137.884c0.087,0.063,0.156,0.151,0.216,0.248C122.575,138.522,123.515,139.074,121.892,137.884z"/>
</g>
<polygon opacity="0.7" fill-rule="evenodd" clip-rule="evenodd" fill="#00A5D0" points="11.281,12.808 0.044,24.044 0,145.991   115.333,145.991 71.167,207.294 139,145.991 225.667,145.991 245.243,123.9 "/>
<path fill="#FFFFFF" d="M194.916,147.772c-27.248,0-49.417,22.167-49.417,49.416s22.169,49.419,49.417,49.419  c27.249,0,49.418-22.17,49.418-49.419S222.165,147.772,194.916,147.772z M150.486,197.188c0-6.441,1.382-12.557,3.848-18.082  l21.194,58.067C160.705,229.974,150.486,214.774,150.486,197.188z M194.916,241.621c-4.36,0-8.57-0.64-12.552-1.811l13.332-38.735  l13.656,37.415c0.09,0.22,0.2,0.422,0.318,0.612C205.053,240.728,200.091,241.621,194.916,241.621z M201.04,176.356  c2.674-0.14,5.084-0.422,5.084-0.422c2.395-0.282,2.111-3.801-0.282-3.661c0,0-7.197,0.564-11.843,0.564  c-4.366,0-11.701-0.564-11.701-0.564c-2.396-0.14-2.677,3.52-0.282,3.661c0,0,2.267,0.282,4.66,0.422l6.922,18.967l-9.725,29.161  l-16.179-48.128c2.678-0.14,5.085-0.422,5.085-0.422c2.393-0.282,2.109-3.801-0.284-3.661c0,0-7.195,0.564-11.842,0.564  c-0.834,0-1.816-0.02-2.858-0.054c7.944-12.061,21.599-20.025,37.121-20.025c11.567,0,22.099,4.422,30.003,11.665  c-0.191-0.012-0.379-0.036-0.575-0.036c-4.364,0-7.461,3.803-7.461,7.886c0,3.661,2.112,6.76,4.363,10.421  c1.69,2.959,3.663,6.761,3.663,12.254c0,3.802-1.462,8.214-3.38,14.362l-4.433,14.807L201.04,176.356z M233.904,175.874  c3.468,6.327,5.441,13.589,5.441,21.314c0,16.392-8.883,30.702-22.092,38.403l13.57-39.236c2.535-6.338,3.379-11.406,3.379-15.913  C234.203,178.806,234.095,177.289,233.904,175.874z"/>
<path fill-rule="evenodd" clip-rule="evenodd" fill="#E84207" d="M71.167,207.294c0,0-22.333-24.889-22.333-37.222  c0-12.334,10-22.334,22.333-22.334s22.333,10,22.333,22.334C93.5,182.405,71.167,207.294,71.167,207.294z M71.167,155.183  c-8.222,0-14.889,6.667-14.889,14.89c0,8.222,6.667,14.889,14.889,14.889c8.223,0,14.889-6.667,14.889-14.889  C86.056,161.85,79.389,155.183,71.167,155.183z M71.167,177.516c-4.111,0-7.444-3.332-7.444-7.443s3.333-7.445,7.444-7.445  s7.444,3.334,7.444,7.445S75.278,177.516,71.167,177.516z"/>
<path fill-rule="evenodd" clip-rule="evenodd" fill="#E84207" d="M17.833,177.295c0,0-10.333-11.516-10.333-17.222  c0-5.707,4.627-10.334,10.333-10.334s10.333,4.627,10.333,10.334C28.167,165.779,17.833,177.295,17.833,177.295z M17.833,153.184  c-3.804,0-6.889,3.085-6.889,6.89c0,3.804,3.085,6.889,6.889,6.889c3.805,0,6.889-3.085,6.889-6.889  C24.722,156.269,21.638,153.184,17.833,153.184z M17.833,163.517c-1.902,0-3.444-1.541-3.444-3.443s1.542-3.445,3.444-3.445  s3.444,1.543,3.444,3.445S19.735,163.517,17.833,163.517z"/>
<polygon fill-rule="evenodd" clip-rule="evenodd" fill="#FFFFFF" points="245.243,123.9 203.334,123.9 71.167,207.294   149.334,123.9 11.281,123.9 11.281,12.808 245.243,12.808 "/>
<rect x="22.508" y="26.265" fill-rule="evenodd" clip-rule="evenodd" fill="#B3B3B3" width="82.465" height="82.464"/>
<g>
	<rect x="125.563" y="27.023" fill="#666666" width="104.707" height="7"/>
</g>
<g>
	<rect x="152.255" y="52.588" fill="#B3B3B3" width="77.038" height="6"/>
</g>
<g>
	<rect x="152.255" y="74.726" fill="#B3B3B3" width="77.038" height="6"/>
</g>
<g>
	<rect x="152.255" y="98.814" fill="#B3B3B3" width="77.038" height="6"/>
</g>
<path fill-rule="evenodd" clip-rule="evenodd" fill="#FFFFFF" d="M81.904,78.781c-1.975-2.577-4.363-4.25-7.786-5.2l-3.207,11.228  c0,1.035-0.848,1.881-1.881,1.881s-1.881-0.846-1.881-1.881v-8.933c0-1.298-1.053-2.351-2.351-2.351c-1.297,0-2.35,1.053-2.35,2.351  v8.933c0,1.035-0.847,1.881-1.881,1.881c-1.035,0-1.881-0.846-1.881-1.881l-3.207-11.228c-3.422,0.959-5.811,2.623-7.786,5.2  c-0.781,1.016-1.204,3.056-1.232,4.147c0.009,0.281,0,0.611,0,0.94v1.881v1.881c0,2.078,1.684,3.761,3.761,3.761h29.153  c2.078,0,3.761-1.683,3.761-3.761V85.75v-1.881c0-0.329-0.009-0.659,0-0.94C83.107,81.837,82.684,79.797,81.904,78.781z   M54.924,56.202c0,5.492,3.423,13.561,9.874,13.561c6.339,0,9.875-8.068,9.875-13.561c0-5.491-4.42-9.949-9.875-9.949  C59.344,46.253,54.924,50.711,54.924,56.202z"/>
<path fill-rule="evenodd" clip-rule="evenodd" fill="#3FD6F5" d="M132.858,47.61c-2.639,0-5.283,0.472-6.242,1.413  c-0.796,0.781-1.062,2.16-1.152,3.034c0,0-0.011,0.086-0.011,0.123c0,0.343,0.276,0.618,0.616,0.618c0.041,0,1.524-0.121,2.42-0.195  c0.021-0.003,0.043-0.006,0.064-0.012c0.334-0.009,0.602-0.281,0.602-0.617l0.003-1.215c0-0.376,0.307-0.679,0.682-0.679h6.036  c0.377,0,0.683,0.303,0.683,0.679l0.003,1.215c0,0.336,0.268,0.608,0.601,0.617c0.022,0.006,0.044,0.009,0.065,0.012  c0.895,0.074,2.379,0.195,2.42,0.195c0.339,0,0.616-0.275,0.616-0.618c0-0.037-0.012-0.123-0.012-0.123  c-0.09-0.874-0.354-2.253-1.15-3.034C138.141,48.082,135.497,47.61,132.858,47.61z M132.858,55.633  c-0.682,0-1.234,0.552-1.234,1.234c0,0.682,0.553,1.234,1.234,1.234s1.234-0.553,1.234-1.234  C134.093,56.185,133.54,55.633,132.858,55.633z M131.933,52.855v-0.771c0-0.425-0.346-0.771-0.771-0.771  c-0.427,0-0.771,0.346-0.771,0.771v0.771l-4.163,4.447c-0.288,0.281-0.466,0.673-0.466,1.105v1.237c0,0.682,0.552,1.234,1.233,1.234  h0.309v0.772c0,0.425,0.347,0.771,0.772,0.771c0.425,0,0.771-0.346,0.771-0.771v-0.772h8.023v0.772c0,0.425,0.345,0.771,0.771,0.771  c0.425,0,0.771-0.346,0.771-0.771v-0.772h0.31c0.682,0,1.234-0.552,1.234-1.234v-1.237c0-0.432-0.18-0.824-0.467-1.105l-4.161-4.447  v-0.771c0-0.425-0.348-0.771-0.772-0.771c-0.426,0-0.771,0.346-0.771,0.771v0.771H131.933z M132.858,54.398  c1.364,0,2.47,1.104,2.47,2.469c0,1.364-1.105,2.469-2.47,2.469c-1.363,0-2.468-1.105-2.468-2.469  C130.391,55.503,131.495,54.398,132.858,54.398z"/>
<path fill-rule="evenodd" clip-rule="evenodd" fill="#3FD6F5" d="M126.449,82.173c0,0.657,0.532,1.19,1.19,1.19h11.902  c0.657,0,1.189-0.533,1.189-1.19v-8.035c0-0.657-0.532-1.19-1.189-1.19H127.64c-0.658,0-1.19,0.533-1.19,1.19V82.173z   M130.829,78.165l-2.723-2.741c-0.227-0.226-0.227-0.592,0-0.818c0.227-0.226,0.593-0.226,0.817,0l4.345,4.351  c0.176,0.173,0.465,0.173,0.638,0l4.35-4.351c0.227-0.226,0.593-0.226,0.817,0c0.227,0.227,0.227,0.593,0,0.818l-2.725,2.741  l2.725,2.723c0.227,0.226,0.227,0.592,0,0.818c-0.225,0.226-0.591,0.226-0.817,0l-2.723-2.72c0,0-0.851,0.866-1.005,1.021  c-0.242,0.235-0.575,0.381-0.938,0.381c-0.369,0-0.703-0.149-0.943-0.39c-0.158-0.154-1.004-1.012-1.004-1.012l-2.72,2.72  c-0.225,0.226-0.591,0.226-0.817,0c-0.227-0.227-0.227-0.593,0-0.818L130.829,78.165z"/>
<path fill-rule="evenodd" clip-rule="evenodd" fill="#3FD6F5" d="M139.834,104.647h-0.893v-0.892c0-0.985-0.797-1.784-1.782-1.784  h-7.135c-0.986,0-1.784,0.799-1.784,1.784v0.892h-0.892c-0.493,0-0.893-0.399-0.893-0.892v-5.351c0-0.493,0.399-0.892,0.893-0.892  h1.783v-3.567h8.918v3.567h1.784c0.492,0,0.892,0.399,0.892,0.892v5.351C140.726,104.248,140.326,104.647,139.834,104.647z   M137.159,94.837h-7.135v2.675h7.135V94.837z M137.159,99.296h-0.894v0.892h0.894V99.296z M138.941,99.296h-0.892v0.892h0.892  V99.296z M129.132,108.214v-3.567l0,0l0,0v-0.892c0-0.493,0.398-0.892,0.893-0.892h7.135c0.491,0,0.891,0.399,0.891,0.892v0.892  h-0.891v1.784h-0.894v-1.784h-0.891v3.567h-0.892v-3.567h-0.893v2.675h-0.892v-2.675h-0.893v1.784h-0.892v-1.784h-0.891v3.567  H129.132z"/>
</svg>